<mxfile host="app.diagrams.net" modified="2024-04-22T03:52:20.441Z" agent="Mozilla/5.0 (Windows NT 10.0; Win64; x64) AppleWebKit/537.36 (KHTML, like Gecko) Chrome/123.0.0.0 Safari/537.36" version="24.2.7" etag="p0waUK2ocehLqp4sLAVD" type="github">
  <diagram name="Trang-1" id="kuLWXqdjbNohiQykmAta">
    <mxGraphModel>
      <root>
        <mxCell id="0" />
        <mxCell id="1" parent="0" />
      </root>
    </mxGraphModel>
  </diagram>
</mxfile>
